<svg width="250" height="120" xmlns="http://www.w3.org/2000/svg">
  <style>
    line { stroke-width: 16; }
    circle { stroke: rgba(241, 11, 126, 0.9); stroke-width: 16; }
  </style>

  <!-- Buchstabe A -->
  <line x1="10" y1="120" x2="10" y2="0" stroke="rgba(241, 11, 126, 0.9)" />
  <line x1="10" y1="8" x2="80" y2="8" stroke="rgba(241, 11, 126, 0.9)" />
  <line x1="80" y1="120" x2="80" y2="0" stroke="rgba(241, 11, 126, 0.9)" />
  <line x1="10" y1="60" x2="80" y2="60" stroke="rgba(241, 11, 126, 0.9)" />

  <line x1="88" y1="8" x2="160" y2="8" stroke="rgba(241, 122, 11, 0.9)" />
  <line x1="88" y1="60" x2="160" y2="60" stroke="rgba(241, 122, 11, 0.9)" />
  <line x1="88" y1="112" x2="160" y2="112" stroke="rgba(241, 122, 11, 0.9)" />
  <line x1="152" y1="60" x2="152" y2="112" stroke="rgba(241, 122, 11, 0.9)" />

  <line x1="160" y1="8" x2="240" y2="8" stroke="rgba(241, 11, 126, 0.9)" />
  <line x1="152" y1="16" x2="152" y2="52" stroke="rgba(241, 11, 126, 0.9)" />
  <line x1="232" y1="16" x2="232" y2="52" stroke="rgba(241, 11, 126, 0.9)" />
  <line x1="160" y1="60" x2="240" y2="60" stroke="rgba(241, 11, 126, 0.9)" />

  <!-- <circle cx="180" cy="86" r="80" fill="none"/> -->


  <!-- Buchstabe S -->
  <!-- <line x1="100" y1="20" x2="140" y2="20" />
  <line x1="100" y1="20" x2="100" y2="60" />
  <line x1="100" y1="60" x2="140" y2="60" />
  <line x1="140" y1="60" x2="140" y2="100" />
  <line x1="100" y1="100" x2="140" y2="100" /> -->

  <!-- Buchstabe P -->
  <line x1="180" y1="20" x2="180" y2="100" />
  <line x1="180" y1="20" x2="230" y2="20" />
  <line x1="230" y1="20" x2="230" y2="60" />
  <line x1="230" y1="60" x2="180" y2="60" />
</svg>



